<?xml version="1.0" encoding="utf-8"?>
<!-- Generator: Adobe Illustrator 19.2.0, SVG Export Plug-In . SVG Version: 6.00 Build 0)  -->
<svg version="1.1" id="Layer_1" xmlns="http://www.w3.org/2000/svg" xmlns:xlink="http://www.w3.org/1999/xlink" x="0px" y="0px"
	 viewBox="0 0 668 356.3" style="enable-background:new 0 0 668 356.3;" xml:space="preserve">
<style type="text/css">
	.st0{fill:#FFFFFF;}
</style>
<g id="XMLID_6_">
	<polygon class="st0" points="492,101.2 433.5,134.9 375,101.2 375,33.7 433.5,0 492,33.7 	"/>
</g>
<g id="XMLID_7_">
	<polygon class="st0" points="357,68.2 328.5,51.9 300,68.2 300,100.7 328.5,117 357,100.7 	"/>
</g>
<path class="st0" d="M19.9,183.4H0v74h19.9C36,257.4,45,250.6,46,232v-22.6C45,190.9,36,183.4,19.9,183.4z M32,230.5
	c0,11-5,15-12.7,15H14v-49h5.3c8.8,0,12.7,4.2,12.7,14.6V230.5z"/>
<g id="XMLID_17_">
	<path id="XMLID_18_" class="st0" d="M52,183.4v52.1c0,16.2,9.5,23.1,23.9,23.1c14.5,0,24.1-6.8,24.1-23.1v-52.1H86v52
		c0,7-3.2,10.7-10.1,10.7c-6.8,0-9.9-3.7-9.9-10.7v-52H52z"/>
</g>
<g id="XMLID_19_">
	<path id="XMLID_20_" class="st0" d="M121,205.8c0-8.2,3.4-10.4,9-10.4c5.6,0,9,2.2,9,10.4v1.7h14v0.2c0-18.2-9.3-24.7-23-24.7
		s-23,6.5-23,24.7V234c0,18.2,9.3,24.7,23,24.7s23-6.5,23-24.7v-3.5h-14v5.3c0,8.2-3.4,10.4-9,10.4s-9-2.2-9-10.4V205.8z"/>
</g>
<g id="XMLID_21_">
	<polygon id="XMLID_22_" class="st0" points="174,257.4 174,225.4 194,225.4 194,257.4 208,257.4 208,183.4 194,183.4 194,213.4 
		174,213.4 174,183.4 160,183.4 160,257.4 	"/>
</g>
<g id="XMLID_23_">
	<polygon id="XMLID_24_" class="st0" points="256,257.4 256,245.4 230,245.4 230,225.4 249,225.4 249,213.4 230,213.4 230,196.4 
		255,196.4 255,183.4 216,183.4 216,257.4 	"/>
</g>
<g id="XMLID_25_">
	<polygon id="XMLID_26_" class="st0" points="275,257.4 275,210.4 275.2,210.4 296.7,257.4 310,257.4 310,183.4 297,183.4 
		297,227.4 297.1,227.4 277.6,183.4 262,183.4 262,257.4 	"/>
</g>
<g id="XMLID_27_">
	<polygon id="XMLID_28_" class="st0" points="332,257.4 332,210.4 331.9,210.4 353.4,257.4 367,257.4 367,183.4 354,183.4 
		354,227.4 353.9,227.4 334.3,183.4 319,183.4 319,257.4 	"/>
</g>
<g id="XMLID_29_">
	<polygon id="XMLID_30_" class="st0" points="414,257.4 414,245.4 389,245.4 389,225.4 408,225.4 408,213.4 389,213.4 389,196.4 
		413,196.4 413,183.4 375,183.4 375,257.4 	"/>
</g>
<path class="st0" d="M551,86.6L434,154v134.9l117,67.4l117-67.4V154L551,86.6z M492,238.3c0,11.8-5.2,20.4-18.5,20.4
	s-18.5-8.5-18.5-20.4v-53.9h8v53.7c0,7.5,1.8,13.9,10.5,13.9s10.5-6.4,10.5-13.9v-53.7h8V238.3z M532.1,257.4l-13.6-40h-0.3
	l-9.2,17.7v22.3h-8v-73h8V221l20.5-36.6h8.6l-14.3,25.4l16.9,47.6H532.1z"/>
</svg>
