
<svg version="1.1" id="Layer_1" xmlns="http://www.w3.org/2000/svg" xmlns:xlink="http://www.w3.org/1999/xlink" x="0px" y="0px"
	 viewBox="0 0 608 105.9" style="enable-background:new 0 0 608 105.9;" xml:space="preserve">
<style type="text/css">
	.st0{fill:#007DC5;}
</style>
<path class="st0" d="M574.4,25C571,10.4,560.3,0,542.7,0c-20.4,0-31,11.1-31,28.8c0,28.8,44,29.1,44,48.5c0,7.7-5.3,12.3-12.1,12.3
	c-5.9,0-13-4.4-15.3-16.8l-19.4,4.1c5.3,20.3,17.7,29,33.7,29c20.7,0,32.8-11.7,32.8-29.4c0-32.3-44-33.4-44-49
	c0-7,3.9-11.3,10.8-11.3c6.9,0,11.1,4.1,14.4,13.8L574.4,25z M500.8,104.5V87.1h-35.7V60h26.1V42.5h-26.1V18.8h34.3V1.4h-54v103.1
	H500.8z M437,104.5V87.1h-31.7V1.4h-19.7v103.1H437z M303.1,1.4v72.2c0,22.7,13.3,32.3,33.5,32.3c20.3,0,33.7-9.6,33.7-32.3V1.4
	h-19.7v72.1c0,9.9-4.4,15-14,15c-9.6,0-13.8-5.1-13.8-15V1.4H303.1z M244.1,32c0-11.4,5-14.6,12.8-14.6c7.9,0,12.8,3.1,12.8,14.6
	v2.9h19.7v-0.3C289.5,9.1,276.1,0,256.9,0c-19.1,0-32.5,9.1-32.5,34.5v36.8c0,25.4,13.4,34.5,32.5,34.5c19.1,0,32.5-9.1,32.5-34.5
	v-4.3h-19.7v6.9c0,11.4-5,14.6-12.8,14.6c-7.9,0-12.8-3.1-12.8-14.6V32z M170,17.7h10.1c8.7,0,14,4.3,14,14.3c0,10-5.3,14.3-14,14.3
	H170V17.7z M217.7,104.5l-19.4-46c11-4.1,15.6-13.4,15.6-26.3c0-19.4-11.3-30.8-35-30.8h-28.5v103.1H170v-42h9.4l17.1,42H217.7z
	 M137.9,104.5V87.1h-35.7V60h26.1V42.5h-26.1V18.8h34.3V1.4h-54v103.1H137.9z M19.7,104.5V60h27.8v44.5h19.7V1.4H47.5v41.1H19.7V1.4
	H0v103.1H19.7z"/>
<polygon class="st0" points="608,97.7 595.8,104.8 583.6,97.7 583.6,83.6 595.8,76.6 608,83.6 "/>
</svg>
